<svg xmlns="http://www.w3.org/2000/svg" width="32" height="32" fill="none" viewBox="0 0 32 32">
    <path fill="#828282" d="M16 18.06c-1.338.002-2.631-.481-3.64-1.36L2.53 8.18c-.104-.085-.19-.19-.252-.308-.063-.118-.101-.248-.113-.381-.011-.134.004-.268.046-.395.041-.128.108-.245.195-.347.088-.1.195-.183.315-.242.12-.06.252-.093.385-.1.134-.008.268.011.394.057.126.045.241.115.34.206l9.86 8.52c.644.554 1.465.859 2.315.859.85 0 1.67-.305 2.315-.859l9.94-8.44c.098-.097.215-.174.343-.224.129-.05.267-.073.404-.067.138.006.274.04.398.1.124.061.234.147.323.252.09.106.156.228.196.36.04.133.051.272.034.409-.016.137-.061.269-.132.388-.07.118-.164.221-.276.302l-9.93 8.44c-1.01.87-2.297 1.35-3.63 1.35z"/>
    <path fill="#828282" d="M26.65 26.48H5.35c-1.065-.013-2.083-.446-2.831-1.204-.75-.758-1.169-1.78-1.169-2.846V9.57c0-1.066.42-2.088 1.169-2.846.748-.758 1.766-1.19 2.831-1.204h21.3c1.074 0 2.104.427 2.864 1.186.76.76 1.186 1.79 1.186 2.864v12.86c0 1.074-.427 2.104-1.186 2.864-.76.76-1.79 1.186-2.864 1.186zm-21.3-19c-.535.013-1.044.235-1.417.618-.374.383-.583.897-.583 1.432v12.9c0 .544.216 1.065.6 1.45.385.384.906.6 1.45.6h21.3c.544 0 1.065-.216 1.45-.6.384-.385.6-.906.6-1.45V9.57c0-.544-.216-1.065-.6-1.45-.385-.384-.906-.6-1.45-.6L5.35 7.48z"/>
</svg>
