<svg xmlns="http://www.w3.org/2000/svg" width="82" height="62" fill="none" viewBox="0 0 82 62">
    <path fill="url(#paint0_linear)" d="M32.594 0c3.378 0 5.784 3.281 4.768 6.504l-16.395 52C20.311 60.584 18.381 62 16.2 62h-9.38c-3.378 0-5.784-3.282-4.768-6.504l8.156-25.858.012-.03c.004-.014.004-.028.008-.042l8.219-26.07C19.102 1.417 21.032 0 23.214 0h9.38z"/>
    <path fill="url(#paint1_linear)" d="M55.4 0c3.379 0 5.785 3.281 4.769 6.504l-16.396 52C43.117 60.584 41.187 62 39.005 62h-9.38c-3.378 0-5.784-3.281-4.768-6.504l7.956-25.235 8.439-26.765C41.908 1.416 43.838 0 46.02 0h9.38z"/>
    <path fill="url(#paint2_linear)" d="M80.77 58.098C81.38 60.031 79.936 62 77.91 62H64.344c-1.31 0-2.467-.849-2.861-2.097l-2.865-9.077-.002-.009v-.009l-4.528-14.356c-.185-.587-.185-1.217 0-1.804l6.786-21.516c.883-2.797 4.841-2.797 5.723 0L80.77 58.098z"/>
    <path fill="#D3D3D3" d="M36.89 1.823L2.523 60.176 20.926 1.823H36.89zM59.697 1.823L25.329 60.176 43.732 1.823h15.965z" opacity=".4"/>
    <path fill="#000" d="M54.102 34.6c1.147-3.638 6.564-2.499 6.149 1.294-.372 3.395-5.122 3.863-6.15.605-.194-.618-.194-1.28 0-1.899z" opacity=".3"/>
    <path fill="#7D589F" d="M33.977 0c-2.401.245-4.803.401-7.214.52-1.2.064-2.402.127-3.603.164-1.775.065-3.32 1.257-3.823 2.961l-.096.321-1.144 3.712c-.373 1.23-.792 2.462-1.183 3.693-.39 1.23-.8 2.461-1.22 3.683-.418 1.222-.828 2.462-1.274 3.675-.447 1.212-.866 2.443-1.322 3.656-.903 2.425-1.843 4.823-2.877 7.203l8.226-26.09C19.102 1.415 21.032 0 23.215 0L33.977 0z" opacity=".3"/>
    <path fill="#000" d="M57.1 0c-2.458.245-4.915.401-7.373.52-1.229.071-2.457.126-3.686.164-1.825.065-3.412 1.287-3.928 3.039l-.093.316-1.164 3.793-1.21 3.774c-.4 1.268-.82 2.516-1.248 3.765-.428 1.25-.847 2.508-1.303 3.757-.456 1.249-.875 2.5-1.35 3.73-.912 2.49-1.88 4.96-2.932 7.404l8.44-26.766C41.907 1.416 43.838 0 46.02 0H57.1z" opacity=".3"/>
    <defs>
        <linearGradient id="paint0_linear" x1="19.706" x2="19.706" y1=".682" y2="62.806" gradientUnits="userSpaceOnUse">
            <stop stop-color="#43256F"/>
            <stop offset=".983" stop-color="#994574"/>
        </linearGradient>
        <linearGradient id="paint1_linear" x1="42.513" x2="42.513" y1=".682" y2="62.806" gradientUnits="userSpaceOnUse">
            <stop stop-color="#43256F"/>
            <stop offset=".983" stop-color="#994574"/>
        </linearGradient>
        <linearGradient id="paint2_linear" x1="74.584" x2="45.12" y1="62.753" y2="44.939" gradientUnits="userSpaceOnUse">
            <stop stop-color="#7D589F"/>
            <stop offset="1" stop-color="#43256F"/>
        </linearGradient>
    </defs>
</svg>
