<svg xmlns="http://www.w3.org/2000/svg" width="20" height="20" fill="none" viewBox="0 0 20 20">
    <g fill="#EB5757" fill-rule="evenodd" clip-path="url(#clip0)" clip-rule="evenodd">
        <path d="M10.625 12.5c0-.172-.14-.313-.313-.313h-.624c-.173 0-.313.14-.313.313v.625c0 .172.14.313.313.313h.624c.173 0 .313-.14.313-.313V12.5zM10.625 6.875c0-.173-.14-.313-.313-.313h-.624c-.173 0-.313.14-.313.313v4.063c0 .172.14.312.313.312h.624c.173 0 .313-.14.313-.313V6.875z"/>
        <path d="M14.861 14.861c-2.683 2.683-7.04 2.683-9.722 0-2.683-2.683-2.683-7.04 0-9.722 2.683-2.683 7.04-2.683 9.722 0 2.115 2.115 2.563 5.27 1.344 7.825-.149.312-.016.685.295.833.31.149.684.017.833-.295 1.44-3.02.912-6.748-1.588-9.247-3.17-3.171-8.32-3.171-11.49 0-3.171 3.17-3.171 8.32 0 11.49 3.17 3.171 8.32 3.171 11.49 0 .244-.244.244-.64 0-.884s-.64-.244-.884 0z"/>
    </g>
    <defs>
        <clipPath id="clip0">
            <path fill="#fff" d="M0 0H20V20H0z"/>
        </clipPath>
    </defs>
</svg>
