<svg xmlns="http://www.w3.org/2000/svg" width="37" height="33" fill="none" viewBox="0 0 37 33">
    <path fill="#828282" d="M18.5 1.031c-5.032 0-9.126 3.652-9.126 8.14v4.626c-1.598.277-2.808 1.53-2.808 3.034v12.044c0 1.706 1.556 3.094 3.469 3.094h16.93c1.913 0 3.469-1.388 3.469-3.094V16.831c0-1.504-1.21-2.757-2.808-3.034V9.171c0-4.488-4.094-8.14-9.126-8.14zm-6.814 8.14c0-3.351 3.057-6.077 6.814-6.077s6.814 2.726 6.814 6.077v4.567H11.686V9.17zm16.435 7.66v12.044c0 .569-.518 1.031-1.156 1.031h-16.93c-.638 0-1.157-.462-1.157-1.031V16.831c0-.568.52-1.03 1.157-1.03h16.93c.638 0 1.156.462 1.156 1.03z"/>
    <path fill="#828282" d="M18.5 18.328c-2.288 0-4.15 1.66-4.15 3.701 0 1.681 1.27 3.087 2.994 3.537v.782c0 .57.517 1.031 1.156 1.031.639 0 1.156-.462 1.156-1.031v-.782c1.724-.45 2.994-1.856 2.994-3.537 0-2.04-1.862-3.701-4.15-3.701zm0 5.34c-1.013 0-1.838-.735-1.838-1.639s.825-1.639 1.838-1.639c1.014 0 1.838.735 1.838 1.64 0 .903-.825 1.638-1.838 1.638z"/>
</svg>
