<svg xmlns="http://www.w3.org/2000/svg" width="42" height="47" fill="none" viewBox="0 0 42 47">
    <path fill="#2B2E63" d="M41.737 20.16l-.039-.043s-.007-.007-.007-.014l-5.454-5.386V1.03c0-.57-.42-1.03-.938-1.03H6.695c-.518 0-.945.46-.945 1.03v13.694L.31 20.105c0 .006 0 .006-.007.006-.039.044-.072.087-.105.13-.006.014-.013.022-.02.029-.006.007-.006.007-.006.014-.04.05-.065.108-.092.166v.007c-.052.13-.078.274-.078.41v24.121c-.007.216.045.425.164.612.02.029.039.043.059.065.02.036.046.065.072.086.026.03.052.058.079.08.026.021.052.043.085.057.026.022.06.036.085.058.033.014.073.029.105.036.033.014.06.021.086.029.052.014.105.021.157.021.013 0 .026.008.046.008h40.129c.066 0 .131-.015.197-.03.013 0 .033-.007.046-.014.052-.014.105-.036.157-.064l.04-.022c.052-.029.098-.065.144-.108.007-.007.02-.015.033-.029.19-.187.315-.46.315-.763V20.874c0-.267-.099-.519-.263-.713zm-5.5-2.663l3.315 3.276-3.315 2.556v-5.832zM7.634 2.067H34.36v22.71L20.997 35.08 7.634 24.776V2.066zM5.75 17.503v5.818l-3.308-2.55 3.308-3.268zM1.878 22.86l13.08 10.08-13.08 10.08v-20.16zm2.034 21.111l12.68-9.77 3.867 2.98c.164.13.348.187.538.187.19 0 .38-.057.545-.187l3.86-2.974 12.68 9.764H3.912zm36.21-.95l-13.08-10.08 8.775-6.762c.007-.007.013-.014.026-.021l4.28-3.298v20.16z"/>
    <path fill="#D8DCDF" d="M7.634 2.066v22.71L20.997 35.08 34.36 24.776V2.066H7.634zm21.672 24.877H12.694c-.518 0-.938-.46-.938-1.03 0-.575.42-1.036.938-1.036h16.612c.519 0 .939.46.939 1.037 0 .569-.42 1.03-.939 1.03zm0-4.68H12.694c-.518 0-.938-.46-.938-1.03 0-.568.42-1.036.938-1.036h16.612c.519 0 .939.468.939 1.037 0 .568-.42 1.03-.939 1.03zm0-4.68H12.694c-.518 0-.938-.46-.938-1.03 0-.568.42-1.03.938-1.03h16.612c.519 0 .939.462.939 1.03 0 .57-.42 1.03-.939 1.03zm.939-5.71c0 .569-.42 1.03-.939 1.03H12.694c-.518 0-.938-.461-.938-1.03V6.51c0-.569.42-1.037.938-1.037h16.612c.519 0 .939.468.939 1.037v5.364z"/>
    <path fill="#FFDC7C" d="M39.552 20.773l-3.315 2.556v-5.832l3.315 3.276zM5.75 17.504v5.818l-3.308-2.55 3.308-3.268zM14.959 32.941L1.878 43.021v-20.16l13.08 10.08zM40.123 22.86v20.162l-13.081-10.08 8.775-6.762c.007-.007.013-.014.027-.021l4.279-3.298z"/>
    <path fill="#ECC25D" d="M38.081 43.972H3.912l12.68-9.77 3.867 2.98c.164.13.347.187.538.187.19 0 .38-.057.544-.187l3.86-2.974 12.68 9.764z"/>
    <path fill="#2B2E63" d="M29.306 5.472H12.695c-.518 0-.938.468-.938 1.037v5.364c0 .57.42 1.03.938 1.03h16.612c.519 0 .94-.46.94-1.03V6.51c0-.569-.421-1.037-.94-1.037zm-.945 5.372H13.633V7.539h14.728v3.305z"/>
    <path fill="#7D589F" d="M28.361 7.539H13.633v3.305H28.36V7.539z"/>
    <path fill="#2B2E63" d="M30.245 16.553c0 .57-.42 1.03-.939 1.03H12.695c-.518 0-.938-.46-.938-1.03 0-.568.42-1.03.938-1.03h16.612c.519 0 .94.462.94 1.03zm0 4.68c0 .57-.42 1.03-.939 1.03H12.695c-.518 0-.938-.46-.938-1.03 0-.568.42-1.036.938-1.036h16.612c.519 0 .94.468.94 1.037zm0 4.68c0 .57-.42 1.03-.939 1.03H12.695c-.518 0-.938-.46-.938-1.03 0-.575.42-1.036.938-1.036h16.612c.519 0 .94.46.94 1.037z"/>
</svg>
