<svg xmlns="http://www.w3.org/2000/svg" width="29" height="29" fill="none" viewBox="0 0 29 29">
    <path fill="#EB5757" d="M28.941 14.26c0 7.877-6.479 14.261-14.47 14.261C6.479 28.521 0 22.137 0 14.261 0 6.385 6.479 0 14.47 0c7.992 0 14.471 6.385 14.471 14.26z"/>
    <path fill="#fff" d="M19.11 11.296c.392-.386.392-1.011 0-1.397l-.213-.21c-.392-.387-1.027-.387-1.419 0l-3.007 2.963-3.008-2.964c-.392-.386-1.027-.386-1.418 0l-.214.21c-.391.387-.391 1.012 0 1.398l3.008 2.965-3.008 2.964c-.391.385-.391 1.011 0 1.397l.214.21c.391.386 1.026.386 1.418 0l3.008-2.964 3.007 2.965c.392.386 1.027.386 1.418 0l.214-.21c.392-.387.392-1.013 0-1.398l-3.008-2.965 3.008-2.964z"/>
</svg>
