<svg xmlns="http://www.w3.org/2000/svg" width="798" height="765" fill="none" viewBox="0 0 798 765">
    <g clip-path="url(#clip0)">
        <path fill="#7EAFE8" d="M30.805 478.471c15.198-11.29 37.917-26.22 56.93-24.545 9.129.794 18.491 3.376 27.948 2.071 10.895-1.51 17.687-8.843 27.855-11.647 41.061-11.401 50.199 36.468 84.773 32.85 8.468-.888 16.639-4.848 25.104-5.856 10.861-1.294 21.189 2.439 29.104 8.169 14.488 10.49 25.49 25.811 33.184 41.014 5.214 10.289 13.299 17.985 15.284 29.9.124.6.502 10.315.538 10.329l-300.72-82.285z"/>
        <path fill="#7EAFE8" d="M30.817 478.48c5.789 1.663 8.072 19.864 10.001 24.492 4.651 11.151 12.003 22.356 21.91 30.19 6.595 5.25 15.593 8.671 25.038 7.304 3.516-.5 7.123-1.648 10.483-1.112 4.982.795 7.948 5.073 9.158 9.419 4.392 15.876 9.267 28.651 30.507 30.308 15.948 1.261 39.864-.898 55.618-5.033 5.603-1.467 11.422-3.466 16.874-2.62 4.945.781 8.736 3.787 12.792 6.173 23.655 13.918 66.405 12.945 91.46-4.13.855-.585 17.233-12.674 16.901-12.766L30.817 478.48z"/>
        <path fill="#F5FAFA" d="M332.973 561.153c.319-.655.045-1.432-.613-1.732-.078-.036-.159-.063-.243-.083l-300.67-82.263c-.85-.215-1.749.2-2.139.989-.319.656-.044 1.431.614 1.732.078.035.158.063.242.083l300.682 82.315c.86.201 1.756-.237 2.127-1.041z"/>
        <path fill="#F5FAFA" d="M255.546 539.97c.054-.12.092-.246.113-.377.105-.727-.408-1.388-1.143-1.476-.094-.011-.188-.013-.282-.004-3.377-.07-82.385-1.471-114.681 26.14-.621.457-.76 1.317-.31 1.92.035.049.075.094.117.137.666.551 1.653.518 2.304-.078 31.174-26.693 111.337-25.238 112.094-25.207.75.033 1.455-.383 1.788-1.055zm-90.182-24.677c.296-.546.158-1.216-.327-1.59-.439-.278-39.378-29.42-26.956-56.138.319-.655.044-1.432-.614-1.732-.078-.036-.158-.063-.242-.083-.854-.216-1.755.2-2.149.991-13.224 28.701 26.019 58.117 27.708 59.352.726.472 1.703.346 2.303-.299.12-.15.214-.32.277-.501zm124.579 31.448c.29-.547.153-1.213-.328-1.59-.396-.287-39.28-29.43-26.956-56.193.321-.641.061-1.408-.582-1.712-.087-.041-.178-.073-.272-.093-.85-.214-1.748.201-2.138.989-13.224 28.701 26.019 58.118 27.697 59.355.727.467 1.701.34 2.303-.299.115-.137.207-.292.276-.457z"/>
        <path fill="#7EAFE8" d="M824.447 497.29c-15.199-11.29-37.917-26.22-56.931-24.546-9.128.795-18.49 3.376-27.948 2.072-10.894-1.511-17.686-8.844-27.854-11.648-41.061-11.401-50.199 36.468-84.774 32.85-8.467-.887-16.638-4.847-25.104-5.855-10.86-1.295-21.188 2.439-29.103 8.169-14.489 10.489-25.49 25.81-33.185 41.013-5.213 10.289-13.299 17.985-15.284 29.9-.123.6-.501 10.316-.537 10.33l300.72-82.285z"/>
        <path fill="#7EAFE8" d="M824.435 497.298c-5.789 1.663-8.072 19.865-10.001 24.493-4.651 11.15-12.003 22.355-21.91 30.189-6.596 5.25-15.593 8.672-25.038 7.304-3.516-.5-7.123-1.648-10.483-1.112-4.982.795-7.948 5.073-9.158 9.419-4.393 15.876-9.267 28.651-30.507 30.309-15.948 1.26-39.864-.898-55.618-5.034-5.603-1.467-11.422-3.465-16.874-2.62-4.946.781-8.736 3.787-12.792 6.174-23.655 13.917-66.405 12.944-91.461-4.131-.854-.584-17.232-12.674-16.9-12.766l300.742-82.225z"/>
        <path fill="#F5FAFA" d="M522.279 579.971c-.319-.655-.045-1.431.613-1.732.078-.036.159-.063.243-.083l300.671-82.263c.85-.214 1.748.201 2.138.989.319.656.044 1.431-.614 1.732-.078.036-.158.063-.242.083l-300.682 82.316c-.861.201-1.756-.238-2.127-1.042z"/>
        <path fill="#F5FAFA" d="M599.705 558.789c-.053-.121-.091-.247-.112-.377-.105-.728.408-1.389 1.143-1.477.093-.011.188-.012.282-.003 3.376-.071 82.385-1.472 114.681 26.14.621.457.76 1.316.31 1.92-.036.048-.075.093-.118.137-.666.551-1.653.517-2.303-.079-31.175-26.693-111.337-25.237-112.094-25.206-.75.033-1.455-.384-1.789-1.055zm90.182-24.678c-.295-.546-.157-1.216.328-1.59.438-.278 39.378-29.419 26.956-56.138-.319-.655-.045-1.431.614-1.732.077-.036.158-.063.242-.083.853-.216 1.755.2 2.149.991 13.223 28.701-26.019 58.118-27.708 59.353-.726.471-1.703.345-2.303-.299-.12-.151-.214-.32-.278-.502zm-124.578 31.448c-.29-.547-.153-1.213.328-1.59.395-.287 39.279-29.43 26.956-56.193-.322-.641-.062-1.407.581-1.711.087-.042.179-.073.273-.093.85-.215 1.748.2 2.138.989 13.224 28.701-26.019 58.117-27.697 59.354-.728.467-1.701.341-2.303-.298-.115-.138-.208-.293-.276-.458z"/>
        <path fill="#BCE1FF" d="M139.572 369.39c12.461-.743 30.416-.757 40.549 7.213 4.868 3.821 9.25 8.735 15.028 11.496 6.659 3.175 13.018 1.554 19.715 3.732 27.069 8.753 15.683 39.096 36.41 49.836 5.077 2.63 11.047 3.419 16.164 5.979 6.565 3.285 11.094 9.205 13.574 15.358 4.539 11.264 5.445 23.961 4.529 35.369-.617 7.723 1.28 15.046-1.717 22.492-.138.384-3.281 5.996-3.265 6.018L139.572 369.39z"/>
        <path fill="#BCE1FF" d="M139.576 369.4c2.687 3.076-2.314 14.173-2.825 17.493-1.231 8.001-.96 17.03 1.916 25.105 1.902 5.395 5.788 10.647 11.581 13.367 2.154 1.018 4.582 1.705 6.29 3.248 2.532 2.289 2.725 5.796 1.906 8.691-3.009 10.567-4.675 19.565 6.718 28.348 8.548 6.604 22.766 14.227 33.07 17.72 3.663 1.244 7.631 2.269 10.41 4.76 2.517 2.268 3.614 5.362 5.074 8.205 8.519 16.583 32.938 31.834 52.95 31.475.683-.014 14.085-.771 13.93-.946L139.576 369.4z"/>
        <path fill="#F5FAFA" d="M281.238 527.641c.406-.251.519-.79.252-1.202-.031-.049-.067-.094-.108-.137L140.416 368.841c-.405-.435-1.054-.533-1.546-.233-.407.251-.52.789-.253 1.202.032.049.068.094.108.136L279.68 527.442c.415.431 1.071.515 1.558.199z"/>
        <path fill="#F5FAFA" d="M244.936 487.094c.072-.049.137-.106.194-.171.31-.372.25-.933-.134-1.255-.049-.04-.102-.076-.158-.106-1.878-1.287-45.902-31.276-73.632-27.657-.508.028-.883.461-.838.967.003.04.01.08.019.121.185.556.753.902 1.325.807 26.781-3.516 71.437 26.93 71.852 27.227.411.295.953.322 1.372.067zm-42.279-47.231c.355-.199.508-.627.364-1.017-.151-.318-12.022-31.126 4.204-41.587.406-.251.52-.79.253-1.202-.032-.049-.068-.094-.108-.137-.406-.437-1.058-.536-1.553-.235-17.362 11.281-5.415 42.355-4.89 43.675.246.534.84.824 1.4.683.12-.041.231-.101.33-.18zm59.317 63.757c.353-.201.506-.627.365-1.017-.124-.308-11.963-31.096 4.223-41.618.402-.243.521-.77.263-1.179-.034-.056-.075-.107-.121-.153-.405-.435-1.054-.533-1.546-.233-17.362 11.281-5.415 42.355-4.897 43.672.248.532.84.821 1.4.683.113-.035.218-.088.313-.155z"/>
        <path fill="#BCE1FF" d="M794.459 408.011c-11.902-3.767-29.308-8.171-41.082-2.919-5.654 2.514-11.105 6.208-17.383 7.472-7.233 1.451-13.003-1.675-20.029-1.2-28.387 1.869-24.765 34.075-47.489 39.422-5.565 1.308-11.547.614-17.135 1.846-7.169 1.579-13.008 6.213-16.917 11.573-7.155 9.812-11.137 21.902-13.038 33.188-1.29 7.639-4.92 14.277-3.834 22.229.04.406 1.715 6.617 1.694 6.634l175.213-118.245z"/>
        <path fill="#BCE1FF" d="M794.453 408.019c-3.358 2.326-1.222 14.309-1.538 17.654-.762 8.058-3.233 16.747-7.995 23.873-3.163 4.767-8.216 8.91-14.498 10.131-2.337.461-4.86.532-6.893 1.612-3.015 1.6-4.06 4.953-3.973 7.961.334 10.982-.25 20.114-13.444 25.846-9.904 4.313-25.554 8.229-36.399 9.097-3.856.311-7.954.334-11.258 2.07-2.995 1.584-4.815 4.316-6.926 6.716-12.315 13.997-39.721 22.815-59.038 17.574-.659-.18-13.47-4.191-13.276-4.322l175.238-118.212z"/>
        <path fill="#F5FAFA" d="M618.403 526.825c-.332-.342-.311-.892.049-1.227.042-.04.088-.075.138-.106l175.185-118.22c.499-.323 1.152-.259 1.556.152.332.343.311.893-.049 1.227-.043.04-.089.075-.138.106L619.962 527.013c-.508.317-1.165.238-1.559-.188z"/>
        <path fill="#F5FAFA" d="M663.515 496.383c-.057-.064-.106-.136-.146-.213-.21-.436-.014-.966.437-1.183.057-.028.117-.05.179-.065 2.135-.789 52.156-19.105 78.159-8.817.486.152.744.663.577 1.143-.014.038-.03.076-.048.112-.316.495-.951.691-1.482.459-25.109-9.956-75.853 8.648-76.329 8.835-.471.186-1.002.079-1.347-.271zm52.544-35.461c-.296-.279-.34-.732-.105-1.075.224-.272 19.267-27.243 6.091-41.353-.332-.342-.311-.892.049-1.227.043-.04.089-.075.138-.106.501-.325 1.157-.261 1.563.151 14.078 15.183-5.104 42.394-5.936 43.545-.369.458-1.015.594-1.524.32-.107-.068-.2-.155-.276-.255zm-73.105 47.32c-.293-.281-.337-.731-.105-1.075.195-.268 19.202-27.228 6.08-41.387-.331-.334-.317-.874.033-1.208.047-.045.099-.086.155-.119.499-.323 1.152-.259 1.556.152 14.077 15.184-5.104 42.394-5.928 43.545-.371.455-1.016.59-1.525.32-.101-.062-.19-.139-.266-.228z"/>
        <path fill="url(#paint0_linear)" d="M351.284 659.592c-11.994-1.411-62.723-9.532-60.236 10.933 1.985 16.341 39.408 9.949 56.381 11.377 23.971 2.016 64.897-.638 65.7-11.096.482-6.275-12.91-8.392-26.527-8.099-11.193.241-17.751-1.049-35.318-3.115z"/>
        <path fill="url(#paint1_linear)" d="M493.638 662.805c11.994-1.41 62.722-9.532 60.236 10.934-1.985 16.34-39.409 9.948-56.381 11.376-23.972 2.016-64.898-.637-65.701-11.095-.482-6.275 12.91-8.393 26.527-8.1 11.193.242 17.752-1.049 35.319-3.115z"/>
        <path fill="#E7ECFF" d="M161.802 214.896c61.373-80.019 152.677-123.56 251.879-124.87 48.889-.655 101.784 11.001 144.945 34.449 47.428 25.776 86.608 70.966 96.143 124.797 6.579 37.068 9.026 67.895 29.494 100.622 16.575 26.496 52.346 48.222 58.957 79.801 7.866 37.601-45.751 77.247-71.861 92.572-128.41 130.65-181.527 133.963-276.144 120.393-51.155-7.34-108.141-94.682-146.996-131.466-17.949-16.974-31.647-39.388-37.162-63.806-5.514-24.417 2.67-54.154-12.109-76.212-9.384-14.007-26.523-19.948-39.665-30.358-45.219-35.831-30.058-83.495 2.519-125.922z"/>
        <path fill="url(#paint2_linear)" d="M595.41 294.792c-.588 0-1.066.42-1.066.937v5.623c0 .518.478.937 1.066.937h39.317v-7.497H595.41z"/>
        <path fill="url(#paint3_linear)" d="M595.39 307.276c-.577 0-1.046.485-1.046 1.082v6.49c0 .597.469 1.081 1.046 1.081h31.238v-8.653H595.39z"/>
        <path fill="url(#paint4_linear)" d="M596.182 281.43c-.577 0-1.045.485-1.045 1.082v6.49c0 .597.468 1.081 1.045 1.081h45.615v-8.653h-45.615z"/>
        <path fill="url(#paint5_linear)" d="M597.273 268.015c-.957 0-1.732.484-1.732 1.081v6.49c0 .597.775 1.081 1.732 1.081h37.454v-8.652h-37.454z"/>
        <path fill="#fff" d="M466.217 232.252c-2.907-7.505-3.829-15.933-2.207-24.456 2.385-12.526 9.765-22.719 19.577-28.805l-9.182-18.664c-15.144 8.923-26.591 24.352-30.223 43.429-2.502 13.14-.936 26.132 3.789 37.586l18.246-9.09zm22.485-55.962c7.473-3.301 15.948-4.397 24.522-2.651 12.438 2.534 22.488 10.525 28.309 21.089l18.248-9.092c-8.513-16.281-23.725-28.652-42.653-32.507-13.191-2.688-26.229-.84-37.607 4.498l9.181 18.663zm73.574 14.698l-18.245 9.09c2.911 7.509 3.836 15.941 2.212 24.47-4.472 23.49-26.506 38.782-49.214 34.156-12.443-2.535-22.497-10.531-28.317-21.101l-18.247 9.091c8.511 16.287 23.727 28.663 42.659 32.521 33.659 6.856 66.319-15.811 72.947-50.628 2.503-13.146.935-26.142-3.795-37.599z"/>
        <path fill="url(#paint6_linear)" d="M469.954 239.726c-4.254-6.783-6.734-14.867-6.734-23.554 0-12.767 5.337-24.243 13.827-32.176l-12.495-16.477c-13.192 11.783-21.542 29.209-21.542 48.653 0 13.392 3.963 25.826 10.739 36.12l16.205-12.566z"/>
        <path fill="url(#paint7_linear)" d="M481.562 180.324c6.715-4.733 14.826-7.502 23.565-7.502 12.677 0 24.031 5.831 31.715 15.033l16.205-12.568c-11.393-14.273-28.63-23.37-47.92-23.37-13.445 0-25.892 4.42-36.058 11.93l12.493 16.477z"/>
        <path fill="url(#paint8_linear)" d="M556.495 180.04l-16.204 12.565c4.259 6.786 6.742 14.874 6.742 23.567 0 23.941-18.762 43.349-41.907 43.349-12.682 0-24.04-5.836-31.724-15.044l-16.206 12.567c11.393 14.279 28.634 23.381 47.93 23.381 34.305 0 62.114-28.768 62.114-64.254.002-13.397-3.965-25.836-10.745-36.131z"/>
        <path fill="url(#paint9_linear)" d="M480.832 225.619c3.696 10.165 13.177 17.398 24.294 17.398 7.978 0 15.113-3.727 19.874-9.587l-19.874-17.258-24.294 9.447z"/>
        <path fill="url(#paint10_linear)" d="M514.331 191.07l-9.205 25.102L525 233.43c3.791-4.667 6.079-10.685 6.079-17.258 0-11.473-6.96-21.26-16.748-25.102z"/>
        <path fill="url(#paint11_linear)" d="M514.331 191.07c-2.862-1.124-5.962-1.744-9.204-1.744-14.333 0-25.953 12.019-25.953 26.846 0 3.325.589 6.508 1.658 9.447l24.294-9.447 9.205-25.102z"/>
        <g clip-path="url(#clip1)">
            <path fill="#2A94F4" d="M347.479 325.23c27.267 0 49.371-3.54 49.371-7.905 0-4.366-22.104-7.906-49.371-7.906-27.266 0-49.37 3.54-49.37 7.906 0 4.365 22.104 7.905 49.37 7.905z" opacity=".11"/>
            <path fill="#0B4870" d="M384.801 316.293h-77.954c-1.661 0-3.008-1.403-3.008-3.134V201.174c0-1.731 1.347-3.135 3.008-3.135h77.954c1.661 0 3.008 1.404 3.008 3.135v111.985c0 1.731-1.347 3.134-3.008 3.134z"/>
            <path fill="#F7F7F7" d="M381.065 312.035h-70.482c-1.661 0-3.008-1.403-3.008-3.134V205.432c0-1.731 1.347-3.135 3.008-3.135h70.482c1.661 0 3.008 1.404 3.008 3.135v103.469c0 1.731-1.347 3.134-3.008 3.134z"/>
            <path fill="#2A94F4" d="M328.354 217.083h-10.721v11.17h10.721v-11.17z" opacity=".11"/>
            <path fill="#7DC2C5" d="M317.091 220.265c.544.29 1.047.618 1.538.96.488.344.965.699 1.423 1.072.923.74 1.793 1.531 2.627 2.358l-1.85.142c.274-.454.543-.862.835-1.274.287-.411.59-.808.903-1.198.628-.776 1.301-1.515 2.032-2.198.735-.679 1.518-1.31 2.37-1.845.857-.524 1.77-.982 2.756-1.199-.631.818-1.222 1.573-1.801 2.339l-1.709 2.286c-.567.758-1.134 1.515-1.708 2.268l-1.717 2.237-.96 1.251-.891-1.108c-.738-.92-1.441-1.875-2.091-2.882-.328-.5-.638-1.018-.936-1.548-.296-.532-.579-1.076-.821-1.661z"/>
            <path fill="#2A94F4" d="M328.354 249.826h-10.721v11.171h10.721v-11.171zM328.354 283.404h-10.721v11.171h10.721v-11.171z" opacity=".11"/>
            <g opacity=".52">
                <path fill="#2A94F4" d="M375.227 217.083h-42.048v1.798h42.048v-1.798zM375.227 221.769h-42.048v1.798h42.048v-1.798zM351.556 226.455h23.671v1.798h-42.048v-1.798h18.377z" opacity=".52"/>
            </g>
            <g opacity=".52">
                <path fill="#2A94F4" d="M375.227 249.826h-42.048v1.799h42.048v-1.799zM375.227 254.512h-42.048v1.799h42.048v-1.799zM353.216 259.198h-20.037v1.799h20.037v-1.799z" opacity=".52"/>
            </g>
            <g opacity=".52">
                <path fill="#2A94F4" d="M375.227 283.404h-42.048v1.798h42.048v-1.798zM373.523 288.09h-40.344v1.798h40.344v-1.798zM375.227 292.776h-42.048v1.798h42.048v-1.798z" opacity=".52"/>
            </g>
            <path fill="#FBBF72" d="M364.352 203.805h-37.057v-8.397c0-1.731 1.347-3.134 3.009-3.134h31.04c1.662 0 3.008 1.403 3.008 3.134v8.397z"/>
        </g>
        <path fill="#6B83DA" d="M262.618 291.68s-1.245 18.057 2.167 20.25c2.137 1.356 10.659 5.927 10.405 6.784-.254.856-4.812 7.63-4.812 7.63s-16.367-11.159-16.89-14.677c-.498-3.436.807-26.477 3.058-27.54 1.684-.794 2.571-.139 4.697 1.496 2.974 2.291 1.375 6.057 1.375 6.057zm-1.903 131.598l-.572 4.205c-.075.547-5.659-.325-5.659-.325l-.453-4.355s5.987-.046 6.684.475z"/>
        <path fill="#734E4D" d="M260.202 427.018s1.774 2.203 3.487 3.168c1.713.965 4.408 1.341 5.424 2.337.732.717 2.665 3.807-4.458 3.746-7.122-.062-10.559.438-11.321-.749-.762-1.186 1.105-8.77 1.105-8.77s1.689.65 5.763.268zM288.873 427.399s1.773 2.203 3.486 3.168c1.714.964 4.408 1.341 5.424 2.337.733.717 2.665 3.807-4.458 3.745-7.122-.062-10.559.439-11.321-.748-.762-1.186 1.106-8.77 1.106-8.77s1.688.65 5.763.268z"/>
        <path fill="#2A94F4" d="M288.733 423.278s-.498 3.658-.577 4.205c-.08.547-5.659-.325-5.659-.325l-.453-4.355s5.987-.046 6.689.475z"/>
        <path fill="#C6496F" d="M262.723 329.259s-5.26 8.657-4.867 16.483c.394 7.826-.468 16.179-1.26 24.356-.876 9.111-3.277 28.071-3.407 32.946-.129 4.875.17 23.216.17 23.216l9.125-.072s3.237-37.053 4.806-40.901c1.569-3.849 8.01-31.682 8.274-34.757.264-3.075-12.841-21.271-12.841-21.271z"/>
        <path fill="#C6496F" d="M290.412 330.435s2.077 21.271 2.6 26.059c.523 4.787.169 25.537.428 28.529.259 2.993-1.748 34.649-2.241 40.68l-10.032-.067s-.692-25.61-.692-38.048c0-12.439-3.078-26.926-6.61-35.134-3.531-8.208-11.615-8.404-13.787-23.634 0 0 27.395-3.214 30.334 1.615z"/>
        <path fill="#FCD2B1" d="M268.281 256.284s6.266-4.339 10.669.309c4.404 4.649 6.56 15.565 3.402 17.742-3.157 2.178-8.522 2.755-11.067-.206s-5.26-7.465-5.927-10.757c-.668-3.291 1.334-5.7 2.923-7.088z"/>
        <path fill="#FCD2B1" d="M280.221 275.073s-.08 4.561.403 5.536c.483.975-9.145.985-9.145.985-.513-3.307-1.271-6.568-2.266-9.756-1.479-4.462 11.008 3.235 11.008 3.235z"/>
        <path fill="#C6496F" d="M269.457 271.792s.897.949 3.442-.124 4.936-5.5 5.947-6.191c1.011-.691.872-1.341.872-1.341l.926.877 1.191-.212s-1.808-2.992-.498-4.715c1.31-1.723-4.075-10.133-11.845-4.994 0 0-6.087 3.446-4.981 7.223 1.106 3.776 3.053 7.929 4.946 9.477z"/>
        <path fill="#CCE9FF" d="M281.197 280.49s-.03-1.857-.842-2.064c-.811-.206-8.965-.99-9.961-.583v2.203s1.907 1.213 10.803.444z"/>
        <path fill="#FCD2B1" d="M279.225 262.784c-.294-.609-2.292-2.063-2.446.057-.154 2.12 1.963 4.39 2.754 3.957.792-.433.439-2.476-.308-4.014z"/>
        <path fill="#C6496F" d="M266.468 257.398s-8.965 2.492 2.625 14.017l-2.625-14.017z"/>
        <path fill="#FCD2B1" d="M346.547 306.755l-9.135-.083c.787-.479 2.062-1.331 1.783-1.723-.403-.552-2.988.666-4.039.779-.967.098-2.581-.031-3.806.434l-2.889 1.274 2.645 2.533s4.777.712 6.176.81c2.277.17 9.23-2.636 9.345-3.064.209-.764-.08-.96-.08-.96z"/>
        <path fill="#6B83DA" d="M293.121 283.065c-5.812-1.032-11.924-2.58-11.924-2.58l-10.818-.438s-9.927 2.264-13.837 4.096c-.374.175-.374 9.173-1.39 11.536l3.237 7.083s1.873 14.033 2.262 20.27c.179 2.868-3.86 26.863-3.86 26.863 3.843 1.044 7.76 1.768 11.715 2.167 7.381.841 25.826-.309 25.945-1.207.12-.898-3.571-33.632-3.735-35.33-.254-2.579.722-14.62.722-14.62 1.395 1.934 9.434 9.193 13.364 11.499 2.789 1.641 9.643.64 11.66.428 4.368-.464 16.437-1.356 16.671-1.8.185-.268-.697-4.824-1.2-4.999-.503-.176-16.019-.949-19.924-.743-1.589.088-6.759-5.892-6.759-5.892s-8.926-14.842-12.129-16.333z"/>
        <path fill="#7DC2C5" d="M197.247 244.503h45.306v40.503l-6.921-7.044h-38.385v-33.459z"/>
        <path fill="#FBBF72" d="M199.306 204H154v40.503l6.913-7.044h38.393V204z"/>
        <path fill="#7DC2C5" d="M217.159 491.849c7.79-3.72 19.256-8.368 27.554-5.618 3.985 1.315 7.91 3.492 12.234 3.859 4.981.418 8.671-2.317 13.448-2.58 19.296-1.099 18.973 22.277 34.672 24.155 3.846.459 7.84-.552 11.696-.15 4.946.516 9.194 3.333 12.188 6.836 5.479 6.413 8.966 14.729 10.993 22.649 1.375 5.36 4.264 9.802 4.054 15.59 0 .294-.722 4.886-.707 4.896l-126.132-69.637z"/>
        <path fill="#7DC2C5" d="M217.164 491.854c2.421 1.378 1.768 10.143 2.201 12.511 1.046 5.706 3.288 11.716 6.974 16.411 2.45 3.142 6.136 5.675 10.46 6.01 1.608.129 3.317-.036 4.761.563 2.142.887 3.069 3.198 3.208 5.36.498 7.893 1.494 14.384 10.784 17.355 6.973 2.239 17.802 3.699 25.183 3.39 2.625-.109 5.395-.444 7.741.516 2.127.877 3.536 2.677 5.12 4.215 9.24 8.966 28.332 12.928 41.033 7.516.433-.185 8.821-4.158 8.682-4.235l-126.147-69.612z"/>
        <path fill="#F5FAFA" d="M343.898 561.822c.202-.274.151-.666-.114-.875-.031-.025-.064-.046-.1-.064l-126.112-69.622c-.358-.188-.795-.087-1.041.242-.202.275-.151.666.114.875.032.025.065.046.1.064l126.112 69.648c.365.183.803.07 1.041-.268z"/>
        <path fill="#F5FAFA" d="M311.423 543.894c.035-.051.063-.106.085-.165.113-.33-.055-.693-.373-.81-.041-.015-.083-.025-.125-.031-1.495-.382-36.486-9.204-53.371.397-.318.15-.458.539-.314.868.012.026.025.051.04.076.246.327.687.413 1.031.201 16.303-9.286 51.802-.319 52.135-.227.331.093.682-.029.892-.309zm-37.825-20.884c.181-.226.181-.554 0-.779-.17-.176-14.808-17.856-6.839-29.092.202-.274.151-.666-.114-.875-.031-.025-.065-.046-.1-.064-.36-.189-.799-.088-1.046.242-8.508 12.083 6.241 29.923 6.878 30.676.28.296.726.338 1.051.098.068-.058.125-.128.17-.206zm52.494 27.611c.179-.226.179-.552 0-.779-.15-.175-14.764-17.85-6.834-29.118.202-.267.156-.653-.102-.862-.034-.028-.072-.052-.112-.071-.358-.189-.796-.087-1.041.242-8.508 12.083 6.241 29.923 6.873 30.676.281.294.725.335 1.051.098.064-.053.12-.116.165-.186z"/>
        <path fill="#7DC2C5" d="M627.537 469.942l.09-.082c-4.443-.48-7.337-3.122-12.418-1.594-3.696 1.114-7.098 3.193-10.773 4.364-6.411 2.064-11.272-1.775-17.802-.196-9.414 2.26-18.649 7.419-24.213 15.844-4.348 6.608-6.43 15.1-12.452 20.043-3.9 3.209-8.881 4.395-13.289 6.706-16.288 8.606-17.632 30.021-20.651 46.597-1.569 8.616 1.992 4.917 6.052 1.311l34.02-30.006c23.818-20.987 47.697-41.907 71.436-62.987z"/>
        <path fill="#7DC2C5" d="M627.537 469.942c.538 4.04-1.584 6.846-2.092 10.592-.423 3.095.394 6.444.025 9.652-.808 7.074-3.623 13.74-8.089 19.156-2.914 3.482-6.58 6.526-8.119 10.865-1.165 3.281-.946 6.893-1.753 10.282-1.355 5.737-5.579 10.406-10.42 13.414-9.05 5.628-19.864 7.057-29.024 12.433-4.662 2.734-8.542 6.769-13.035 9.802-9.021 6.119-28.352 7.084-37.487.826.917.629 20.059-17.711 21.418-18.908l44.829-39.534c14.569-12.846 29.238-25.672 43.747-38.58z"/>
        <path fill="#F5FAFA" d="M516.98 567.464c-.243-.326-.194-.792.11-1.057l110.004-97.037c.283-.262.718-.237.971.056l.025.031c.231.32.185.77-.105 1.032l-110.008 97.068c-.288.261-.726.23-.977-.069l-.02-.024z"/>
        <path fill="#F5FAFA" d="M545.312 542.474c-.037-.051-.069-.107-.095-.165-.157-.378.001-.817.359-.996 1.335-.666 32.914-16.179 49.52-8.611.358.189.5.643.318 1.014-.167.34-.555.497-.9.364-16.039-7.31-48.046 8.425-48.365 8.585-.289.142-.633.063-.837-.191zm32.999-29.087c-.189-.244-.213-.582-.06-.851.119-.217 11.909-21.906 3.437-32.802-.244-.324-.198-.791.104-1.057.287-.262.725-.233.978.064l.018.023c9.091 11.691-2.809 33.576-3.322 34.504-.185.353-.611.484-.952.292l-.014-.008c-.074-.04-.139-.097-.189-.165z"/>
        <path fill="#F7F7F7" d="M556.458 326.385l-4.623-3.536 36.284-50.984c.715-1.008 2.091-1.236 3.081-.475l1.083.836c.972.742 1.192 2.167.458 3.194l-36.283 50.965z"/>
        <path fill="#F7F7F7" d="M558.787 328.685l-4.42-3.821 39.163-48.646c.77-.969 2.164-1.102 3.1-.285l1.027.893c.936.799 1.064 2.244.275 3.213l-39.145 48.646z"/>
        <path fill="#D3D3D3" d="M592.884 274.124c.251-.394-.395-1.295-1.444-2.012-1.048-.717-2.102-.979-2.353-.584-.251.394.396 1.295 1.444 2.012 1.049.717 2.102.978 2.353.584zM598.119 278.805c.251-.394-.395-1.295-1.444-2.012-1.049-.717-2.102-.978-2.353-.584-.251.394.395 1.295 1.444 2.012 1.048.717 2.102.978 2.353.584z"/>
        <path fill="#FCD2B1" d="M572.398 411.11l.606 3.897c.238 1.559-.642 3.061-2.092 3.555l-6.456 2.205h15.06l-1.816-9.657h-5.302z"/>
        <path fill="#0E538C" d="M579.13 418.562l-7.447-.399s-9.374 1.502-9.429 3.612h18.582l-1.706-3.213z"/>
        <path fill="#FCD2B1" d="M532.41 411.11l-1.541 4.886c-.33 1.064-1.156 1.901-2.183 2.262l-7.319 2.509h15.06l2.128-9.657h-6.145z"/>
        <path fill="#0E538C" d="M536.72 418.562l-8.144-.399s-9.374 1.502-9.429 3.612h18.582l-1.009-3.213z"/>
        <path fill="#6B83DA" d="M570.38 320.986s3.669 2.528 4.733 12.223c1.064 9.695-.422 16.728.422 22.393.844 5.665 2.495 57.143 2.495 57.143h-7.998l-13.336-91.702 13.684-.057z"/>
        <path fill="#6B83DA" d="M552.973 319.94h14.161s1.742 10.931-1.321 17.318c-3.082 6.387-4.732 8.098-5.613 11.805-.88 3.707-22.195 63.682-22.195 63.682h-6.824l21.792-92.805z"/>
        <path fill="#FCD2B1" d="M573.389 289.145s14.234 21.024 12.602 26.708c-1.633 5.684-17.977-.608-17.977-.608v-3.536l11.19 1.464-8.493-15.056 2.678-8.972z"/>
        <path fill="#FFBE55" d="M549.553 301.66c.949-5.255 6.638-13.116 6.638-13.116h22.532l-5.937 33.1c-.391 2.12 4.515 4.328-.783 4.328h-18.389c-.907 0-1.628-.772-1.628-1.744v-11.924c0-1.59-.412-3.18-1.258-4.505-1.401-2.274-1.443-4.659-1.175-6.139z"/>
        <path fill="#FFE3CA" d="M558.292 273.329l-1.797 4.41s-1.064 3.27-.441 5.19c.716 2.205 3.908 2.186 3.908 2.186l-.954 5.379h8.126v-17.013l-8.842-.152z"/>
        <path fill="#385C8D" d="M558.751 275.135c-1.468-1.027-1.743-3.118-.606-4.525 1.596-1.958 4.348-4.315 8.255-4.03 3.852.285 7.557 2.738 7.649 8.46.055 3.821.972 6.463 3.577 11.253 2.44 4.506-1.467 9.581-.917 13.744s1.211 4.087 1.321 7.699c.422 14.2-12.786 13.706-19.499 13.212-6.586-.494-9.025-14.581-4.494-19.998 4.53-5.418 3.008-11.615 3.466-14.162 1.101-6.179 3.926-7.395 3.486-10.494-.826-.266-1.596-.703-2.238-1.159z"/>
        <path fill="#FCD2B1" d="M519.35 267.075c-.037-4.297 3.338-2.605 3.522-1.768.037.171.44.285.605 1.539.165 1.236 1.046 2.928 1.211 2.491.33-.875.734-2.148 1.027-1.863.917.95.404 2.737-.055 3.84-.257.627-.165 1.349.238 1.882l12.089 15.645h16.839c3.467.703 1.761 8.193-2.403 8.022-3.65-.152-13.097-.571-17.224-3.251-4.128-2.699-13.079-21.329-13.079-21.329-1.835-1.445-2.77-4.866-2.77-5.208z"/>
        <path fill="#F7F7F7" d="M555.831 338.86H288.355v188.822h267.476V338.86z"/>
        <path fill="#D3D3D3" d="M295.417 357.845l.005 1.342 251.218-.036-.01-1.342-251.213.036zM295.517 381.933l251.298-.046-.01-1.342-251.293.047.005 1.341zM295.617 404.69l251.372-.052-.01-1.341-251.367.051.005 1.342zM295.712 427.462l251.452-.057-.01-1.346-251.447.056.005 1.347zM295.811 450.244l251.527-.061-.015-1.347-251.517.067.005 1.341zM295.906 473.048l251.601-.073-.01-1.346-251.596.072.005 1.347zM296.005 495.861l251.677-.082-.01-1.347-251.672.083.005 1.346z"/>
        <path fill="#6B83DA" fill-rule="evenodd" d="M295.971 488.071l36.794-33.163c3.895-3.518 10.246-3.518 14.181 0l9.149 8.178c3.935 3.513 10.286 3.513 14.181 0 3.9-3.514 10.246-3.519 14.181 0l13.448 11.994c3.94 3.514 10.286 3.514 14.186 0l40.166-36.252c3.89-3.514 10.236-3.514 14.171 0l19.107 17.024c3.94 3.514 10.285 3.509 14.176 0l6.943-6.268c3.885-3.513 10.231-3.518 14.171 0l26.693 23.794.348 45.947H296.105l-.134-31.254z" clip-rule="evenodd"/>
        <path fill="#6B83DA" d="M462.099 412.769h-38.955c-4.954.003-8.985-4.13-9.031-9.261-.025-5.085 3.936-9.229 8.846-9.255h39.021c4.952-.003 8.983 4.126 9.035 9.255.031 5.084-3.923 9.229-8.831 9.261h-.085zm75.8-22.349h-38.941c-4.948-.003-8.973-4.13-9.025-9.256-.031-5.077 3.919-9.218 8.821-9.25H537.77c4.952-.006 8.985 4.121 9.04 9.25.038 5.072-3.9 9.216-8.796 9.256h-.115zm-146.18 45.142h-38.971c-4.957.011-8.992-4.127-9.03-9.261-.033-5.094 3.927-9.252 8.845-9.286h39.051c4.966-.006 9.003 4.144 9.036 9.286.019 5.095-3.953 9.241-8.871 9.261h-.06z"/>
        <path fill="#0B4870" d="M358.586 597.51c1.454 3.178 3.437 6.759 6.316 7.651 1.992.614 7.6-3.291 8.721-4.859 1.121-1.569-2.356-77.216-4.866-81.823-3.372-6.191-29.956 2.352-29.039 13.073 1.17 13.702 4.936 28.277 9.409 41.86 2.707 8.213 5.865 16.259 9.459 24.098z"/>
        <path fill="#0E538C" d="M310.993 667.731c2.948.441 5.954.193 8.796-.728.15-3.549.303-7.099.458-10.648.055-.441-.002-.888-.164-1.3-.362-.524-.933-.85-1.554-.887-2.336-.434-5.937-.568-6.316 2.512-.448 3.678-.812 7.367-1.22 11.051zm62.814 0c2.892.454 5.845.205 8.627-.728-.631-3.549-1.265-7.099-1.902-10.648-.049-.464-.203-.909-.449-1.3-.456-.512-1.082-.829-1.753-.887-2.431-.434-6.062-.568-5.758 2.512.359 3.678.827 7.367 1.235 11.051z"/>
        <path fill="#0B4870" d="M372.836 588.802c-3.795-6.289-12.95-10.597-16.786.309-5.862 16.628 12.732 47.732 15.486 67.817h9.962c.284-1.945-6.555-64.639-8.662-68.126z"/>
        <path fill="#0A3C5F" fill-rule="evenodd" d="M324.656 536.896c2.425 1.982 5.628 2.281 8.637 2.281 24.75 0 39.07-8.337 35.648-20.121-3.516-12.098-25.667-10.142-37.237-6.247-2.491.841-6.127 1.656-7.83 4.065-2.471 3.508-5.111 15.219.782 20.022z" clip-rule="evenodd"/>
        <path fill="#0B4870" d="M381.498 490.114c1.888 1.635 4.393 3.168 6.675 2.213 1.322-.636 2.298-1.854 2.659-3.317.35-1.448.428-2.953.229-4.432-1.065-11.659-14.868-39.002-23.365-47.804-3.043-4.54-11.875 17.025-11.426 20.286.448 3.26 16.462 25.48 25.228 33.054zm-65.464 107.051c.523 3.178 4.483 7.104 7.102 7.996 1.814.614 8.563-3.291 10.147-4.859 1.584-1.569 19.301-65.036 18.14-69.648-1.559-6.191-6.6-10.179-12.094-11.097-7.969-1.342-16.611 1.547-19.804 11.989-7.71 25.228 1.848 44.074-3.491 65.619z"/>
        <path fill="#CCE9FF" d="M424.832 507.046c1.16 1.29 2.411 2.889 2.037 4.607-.319 1.45-1.763 2.399-3.193 2.58-.433.046-5.021-1.914-9.987-4.308l4.981-8.255c2.161 1.657 4.218 3.453 6.162 5.376z"/>
        <path fill="#0B4870" d="M418.666 501.644l-4.891 10.045c-11.402-5.494-28.92-16.767-31.594-21.715-1.938-3.58-.284-6.81 2.719-8.77 3.258-2.131 23.162 11.912 33.766 20.44zm-82.24 87.158c-1.733-6.274-10.545-11.231-16.89.309-10.211 18.573-7.825 46.355-8.388 67.817h9.962c.906-1.945 16.282-64.639 15.316-68.126z"/>
        <path fill="#0E538C" d="M371.621 441.103c2.52 3.859 1.608 9.369.996 13.836-1.34 9.555-.952 77.041-.827 78.547.125 1.507-.498 3.183-1.992 3.864-.906.337-1.87.472-2.83.398-12.995-.088-33.576-.176-46.576-.263-.857.073-1.718-.095-2.491-.485-1.564-1.032-1.021-3.199-.463-4.876 3.751-11.216 5.604-40.756 2.202-52.05-3.392-11.205-7.526-25.083-5.654-36.82 4.588-5.799 13.947-19.264 32.561-19.264 13.035-.005 22.812 13.646 25.074 17.113z"/>
        <path fill="#0E538C" d="M321.05 436.238c1.773-.552 14.27.273 10.958 9.477-4.139 11.427-12.418 20.729-19.321 30.619-2.122 3.039-4.279 6.114-7.073 8.492-2.795 2.378-6.356 4.029-9.962 3.725-1.893-.165-4.677-1.084-5.604-3.003-.747-1.547.18-4.086.498-5.623 1.201-5.458 20.646-40.643 30.504-43.687z"/>
        <path fill="#CC346F" fill-rule="evenodd" d="M304.563 470.303c-.02.074-.03.15-.03.227l.03-.227z" clip-rule="evenodd"/>
        <path fill="#CCE9FF" d="M331.19 512.205c.175 1.899-3.486 3.611-5.274 4.04-.498.123-3.188-2.637-6.934-5.325l5.733-6.036c2.65 3.452 6.441 6.944 6.475 7.321zm25.951-21.549c-2.361-12.95-4.772-25.858-7.591-37.579-2.665-11.082-9.085-18.893-17.174-26.172 6.679-5.402 18.335-5.913 24.058 1.145 7.068 8.709 4.821 24.506 4.508 34.948-.254 8.285-2.571 27.668-3.801 27.658z"/>
        <path fill="#7DC2C5" d="M349.192 434.112c-.937-1.393-2.177-2.868-1.893-4.54.213-1.122 1.077-1.988 2.167-2.172 3.944-.578 2.136 3.864 1.574 5.825 3.79 5.886 8.348 18.237 9.857 32.977-.409 8.796-2.575 26.527-3.756 26.517-1.609-8.822-3.242-17.618-5.011-26.038-.338-9.73-1.195-29.964-2.938-32.569z"/>
        <path fill="#0E538C" d="M289.849 482.762c.498-1.754 2.212-2.786 3.865-3.41 2.775-1.032 6.266-1.759 9.215-1.145 2.032.428 2.66 2.342 3.82 3.885 2.909 3.859 14.276 17.86 19.969 25.233l-6.231 8.11c-9.2-6.609-25.901-23.34-28.71-27.127-1.181-1.62-2.426-3.58-1.928-5.546z"/>
        <path fill="#734E4D" fill-rule="evenodd" d="M348.624 389.362c-1.44-1.491-11.352-5.401-14.544 2.012-1.111 2.58-1.525 6.98-.942 9.741.772 3.663 6.854 17.257 8.797 15.642 1.96-1.654 3.088-4.14 3.068-6.758-.04-2.915-1.519-5.841-.717-8.637.498-1.687 1.718-3.008 2.913-4.256.967-1.006 2.585-2.115 2.834-3.544.174-1.55-.345-3.096-1.409-4.2z" clip-rule="evenodd"/>
        <path fill="#734E4D" fill-rule="evenodd" d="M357.789 394.062c-.169-1.233-.548-2.502-1.439-3.338-1.425-1.341-3.696-1.13-5.435-.273-.936.459-1.897 1.253-1.902 2.326 0 .903.662 1.636 1.315 2.234 1.494 1.378 3.656 3.416 5.638 3.963 2.446.696 2.017-3.442 1.823-4.912z" clip-rule="evenodd"/>
        <path fill="#E5AB83" d="M351.772 410.489c-1.275-5.825-5.529-7.187-8-5.789-1.584 10.896-3.202 15.74-7.327 21.668 5.131 3.405 13.882 2.771 15.775 0 .08-.836.209-12.872-.448-15.879z"/>
        <path fill="#EFB68F" d="M341.362 396.745c2.386-5.912 10.206-7.347 14.609-2.265 4.034 4.643 4.513 16.927 3.013 19.966-2.615 5.308-12.004 2.971-14.006.19-2.934-4.065-5.619-12.913-3.616-17.891z"/>
        <path fill="#734E4D" fill-rule="evenodd" d="M357.091 395.651c.17 1.372.095 2.771.394 4.127.299 1.357 1.091 2.693 2.361 3.096-.648-1.063-.648-2.425-.409-3.658.239-1.233.693-2.414.877-3.658.695-4.611-2.35-8.933-6.802-9.653-1.012-.163-2.045-.128-3.045.104-1.455.274-2.739 1.149-3.557 2.425-.742 1.3-.662 3.152.429 4.163.965.76 2.218 1.011 3.387.676.956-.227 1.245-.903 2.032-1.352 2.456-1.408 4.084 1.672 4.333 3.73z" clip-rule="evenodd"/>
        <path fill="#EFB68F" d="M337.402 407.667c.276 1.462 1.088 2.756 2.266 3.611 3.347 2.383 4.623-2.58 3.308-5.056-1.564-2.951-6.306-2.481-5.574 1.445z"/>
        <path fill="#734E4D" fill-rule="evenodd" d="M349.475 392.416c0 1.12-2.903 2.941-3.695 3.705-.792.763-1.689 1.46-2.182 2.455-.638 1.285-.498 2.838-.13 4.236.369 1.398.897 2.755.997 4.194.099 1.44-.314 3.044-1.495 3.818.498-1.331-.04-2.868-.866-4.024-.827-1.156-1.918-2.09-2.705-3.271-1.518-2.333-1.728-5.326-.553-7.862.847-1.76 3.158-4.613 4.926-5.304 1.485-.567 5.758-.48 5.703 2.053zm51.947 280.531c.129-1.476-1.226-2.699-2.615-3.039-1.39-.341-2.85-.083-4.279-.103-4.166-.104-7.955-2.525-9.912-6.336-.198-.547-.544-1.023-.996-1.372-.648-.377-1.495-.093-2.072.397-.578.49-.997 1.161-1.495 1.708-.969.981-2.275 1.522-3.631 1.506-1.12 0-2.371-.902-3.447-.32-.951.516-1.205 1.878-1.444 2.848-.413 1.672-.792 3.354-1.186 5.03-.098.375-.165.759-.199 1.146h7.771c.363-.516.657-2.064.811-2.698.025.65.274 2.197.673 2.698h21.363c.37-.4.601-.915.658-1.465zm-78.047 0c.06-1.476-.538-2.699-1.15-3.039-.613-.341-1.564-2.817-2.829-6.439-.578-1.656-3.806-2.12-5.42.733-.523.923-.996 1.548-1.594 1.506-.498 0-1.046-.902-1.494-.32-.448.583-.533 1.878-.637 2.848-.18 1.672-.349 3.354-.499 5.03-.039.372-.079.764-.089 1.146h13.448c.168-.47.257-.965.264-1.465z" clip-rule="evenodd"/>
        <path fill="#F7F7F7" d="M354.78 431.966l-2.49-1.878c-.583-.444-1.24-.903-1.958-.826-.717.078-1.245.671-1.723 1.223l-2.446 2.853c-.341.49-.827.852-1.384 1.032-.732.15-1.435-.346-2.023-.82-2.629-2.126-5.112-4.44-7.431-6.924-.413-.256-.548-.81-.3-1.238.054-.095.126-.179.21-.248l3.078-3.879c2.282 1.155 4.623 2.285 7.133 2.657 1.961.334 3.974.019 5.753-.898.289-.16.837-.717 1.171-.516.333.201.398 1.269.498 1.62l.896 3.678 1.016 4.164z"/>
        <path fill="#0B4870" d="M357.249 499.892l-1.051.02.667 36.943 1.051-.02-.667-36.943zM353.968 492.688c-5.917-11.731-13.893-22.218-23.52-30.923l-.498-.454 6.157-4.587-5.415-1.862-.064-.294c-1.993-8.544-2.6-15.993.891-24.594l.972.424c-3.343 8.223-2.795 15.41-.912 23.618l6.844 2.347-6.754 5.035c9.501 8.706 17.385 19.14 23.261 30.785l-.962.505zm7.004.274l-.932-.516c5.118-10.204 8.249-21.352 9.215-32.807l-5.479-2.198 2.535-.103c1.3-.051 2.321-1.305 2.66-2.517.388-1.393.164-2.915-.139-4.349-1.425-6.768-4.572-13.016-9.116-18.099l.772-.737c4.667 5.214 7.902 11.627 9.37 18.572.333 1.579.577 3.266.124 4.891-.323 1.17-1.054 2.174-2.052 2.817l2.426.975-.035.408c-.925 11.753-4.103 23.198-9.349 33.663z"/>
        <path fill="#EFB68F" d="M333.81 517.622c.324 1.718.274 3.611-.702 5.056-.925 1.237-2.298 2.029-3.8 2.193-1.488.148-2.989.04-4.443-.32-1.036-.212-2.127-.516-2.864-1.28-.738-.763-.907-2.239-.07-2.909.996-.795 2.61-.042 3.586-.852.976-.81.538-2.404.588-3.704.075-1.966 2.047-4.328 4.099-3.988 2.266.387 3.238 3.849 3.606 5.804z"/>
        <path fill="#FFE3CA" d="M429.315 518.308c10.255-2.636 4.727-12.18-1.749-12.144-2.141 0-4.413.309-6.081 1.697-5.589 4.633 3.088 11.51 7.83 10.447z"/>
        <path fill="#0B4870" d="M348.335 505.426c-1.332 0-2.411-1.118-2.411-2.497 0-1.379 1.079-2.497 2.411-2.497 1.331 0 2.411 1.118 2.411 2.497 0 1.379-1.08 2.497-2.411 2.497zm0-3.9c-.751-.003-1.362.625-1.365 1.403-.003.778.604 1.411 1.355 1.414.751.003 1.362-.626 1.365-1.404v-.01c0-.775-.607-1.403-1.355-1.403zm.677 17.592c-1.331 0-2.411-1.118-2.411-2.497 0-1.379 1.08-2.497 2.411-2.497 1.332 0 2.411 1.118 2.411 2.497 0 1.379-1.079 2.497-2.411 2.497zm0-3.9c-.751-.003-1.362.625-1.365 1.403-.002.778.604 1.411 1.355 1.414.751.003 1.362-.625 1.365-1.403v-.011c-.002-.774-.608-1.4-1.355-1.403zm7.581-5.396c-.403 9.518-.498 18.954-4.214 27.663 2.063.077 4.603 1.207 6.346-.202 1.928-1.547.598-5.427.344-7.496-.797-6.32-2.784-13.615-2.476-19.965z"/>
        <path fill="#FFE3CA" d="M469.386 667.447c-2.936.451-5.933.2-8.761-.733l1.166-10.746c.015-.46.138-.91.358-1.31.432-.521 1.047-.843 1.709-.893 2.42-.438 6.071-.578 5.977 2.533-.09 3.715-.299 7.434-.449 11.149z"/>
        <path fill="#783972" fill-rule="evenodd" d="M506.848 535.741c-.41-3.115-1.907-5.967-4.209-8.017-1.992-9.648-24.73-16.608-28.287-10.835-2.58 4.179-10.076 66.331-10.818 79.935-1.554 18.377-3.014 58.179-2.685 59.732h10.047c1.065-15.864 11.456-38.549 12.497-55.718 7.521-16.42 14.396-33.137 20.626-50.151 1.758-4.793 3.496-9.854 2.829-14.946z" clip-rule="evenodd"/>
        <path fill="#0A3C5F" fill-rule="evenodd" d="M527.658 535.467c-2.445 1.997-5.678 2.301-8.711 2.301-24.965 0-39.415-8.409-35.963-20.29 3.547-12.202 25.901-10.231 37.561-6.3 2.516.847 6.182 1.667 7.9 4.128 2.481 3.503 5.155 15.312-.787 20.161z" clip-rule="evenodd"/>
        <path fill="#783972" d="M486.232 457.359c-2.989 11.499-7.472 22.999-15.655 31.388-1.763 1.805-4.159 3.57-6.525 2.811-1.381-.523-2.465-1.658-2.954-3.095-.469-1.424-.67-2.929-.593-4.432.11-11.814 5.674-22.746 11.118-33.126 2.241-4.277 5.603-11.969 10.549-13.517 5.151-1.61 5.977 6.774 5.813 10.086-.252 3.349-.84 6.661-1.753 9.885z"/>
        <path fill="#CC346F" fill-rule="evenodd" d="M559.317 461.889c.043.063.078.132.104.205l-.104-.205z" clip-rule="evenodd"/>
        <path fill="#FFE3CA" d="M503.476 414.213c3.706-5.871 10.301-7.248 13.449-5.84-1.191 10.994-.399 15.885 3.676 21.88-8.513 3.436-20.99 2.796-22.848 0 .16-.882 3.786-12.975 5.723-16.04z"/>
        <path fill="#734E4D" fill-rule="evenodd" d="M498.834 398.339c-1.086.851-2.182 1.899-2.411 3.291-.174 1.068.199 2.136.568 3.153l1.419 3.931c1.056-1.403 1.525-3.173 2.082-4.86.558-1.687 1.295-3.41 2.685-4.463.862-.65 2.027-1.135 2.271-2.208.344-1.547-1.235-2.259-2.361-1.63-1.484.816-2.906 1.747-4.253 2.786z" clip-rule="evenodd"/>
        <path fill="#FFE3CA" d="M515.43 400.738c-2.844-5.758-10.813-6.568-14.863-1.094-3.706 5.01-3.262 17.386-1.524 20.322 3.033 5.128 12.298 2.022 14.101-.939 2.64-4.329 4.677-13.445 2.286-18.289z"/>
        <path fill="#734E4D" fill-rule="evenodd" d="M500.353 412.635c1.265-.903 3.193-1.032 4.229.139.552.624.757 1.486 1.031 2.291.274.805.682 1.635 1.434 1.976 1.041.469 2.207-.212 3.153-.862l3.223-2.223c.498-.356 1.22-.712 1.708-.31.488.402.354 1.068.185 1.625-1.449 4.562-5.174 7.95-9.728 8.848-1.714.315-3.577.227-5.071-.702-1.858-1.145-2.774-3.353-3.073-5.494-.269-1.93 1.424-4.256 2.909-5.288z" clip-rule="evenodd"/>
        <path fill="#734E4D" fill-rule="evenodd" d="M513.084 401.909c-.418.846-.787 13.197-.443 13.13 1.225-.237 3.337-3.266 5.444-2.678.672.186 1.494.852 1.833-.557 1.992-8.915 2.226-8.383.852-9.539-3.029-2.528-6.939-1.862-7.686-.356z" clip-rule="evenodd"/>
        <path fill="#FFE3CA" d="M520.237 411.402c-.165 1.486-.879 2.849-1.992 3.802-3.183 2.667-4.842-2.234-3.706-4.819 1.34-3.074 6.136-2.992 5.698 1.017z"/>
        <path fill="#734E4D" fill-rule="evenodd" d="M502.33 400.851c.035.826.289 1.785 1.036 2.064.748.279 9.529-4.303 10.007-4.251.478.052-.787 3.235-.349 3.709.439.475.997.32 1.554.227 2.371-.407 4.732.243 7.048.903.312-.861.367-1.799.16-2.693-.239-.699-.586-1.354-1.026-1.94-1.858-2.662-4.483-4.937-7.576-5.561-1.869-.327-3.78-.297-5.639.088-7.162 1.336-5.269 6.196-5.215 7.454z" clip-rule="evenodd"/>
        <path fill="#783972" fill-rule="evenodd" d="M441.533 672.709c-.129-1.486 1.235-2.724 2.635-3.095 1.4-.372 2.874-.083 4.314-.098 4.203-.105 8.025-2.548 10.001-6.392.196-.551.542-1.032.996-1.383.71-.312 1.531-.155 2.087.397.583.516.997 1.171 1.53 1.723.975.993 2.293 1.539 3.661 1.517 1.125 0 2.39-.908 3.486-.32.957.516 1.216 1.894 1.46 2.874.413 1.687.797 3.384 1.195 5.076.097.378.163.762.199 1.151h-7.84c-.363-.516-.662-2.064-.821-2.719 0 .655-.274 2.213-.678 2.719h-21.552c-.373-.393-.61-.903-.673-1.45z" clip-rule="evenodd"/>
        <path fill="#FFE3CA" d="M524.341 669.381c-2.932.551-5.947.404-8.816-.428l.249-10.761c-.027-.453.057-.906.244-1.316.393-.537.982-.882 1.629-.954 2.385-.516 6.021-.784 6.201 2.321.219 3.704.329 7.424.493 11.138z"/>
        <path fill="#783972" fill-rule="evenodd" d="M533.541 527.017c-.085-10.881-9.185-14.523-17.463-14.064-1.749.101-3.473.478-5.111 1.12-2.914-1.032-6.241-.191-8.751 1.656-2.511 1.847-4.344 4.71-5.589 7.692-3.447 8.254-2.988 17.685-1.843 26.61.957 7.326 2.356 14.582 4.189 21.725 1.46 5.675 2.989 12.898 4.981 18.743-1.046 4.246 10.146 66.382 10.958 68.306l10.042-.35c.846-21.364 4.981-49.012-3.557-67.466 2.644-7.226 4.869-14.61 6.665-22.111 3.173-13.435 5.588-27.952 5.479-41.861zm-21.732 148.06c-.105-1.481.453-2.734 1.061-3.095.608-.361 1.494-2.895 2.645-6.588.528-1.687 3.77-2.27 5.479.546.558.919 1.066 1.507 1.658 1.466.499-.037 1.022-.95 1.52-.377s.592 1.878.732 2.853c.239 1.677.458 3.369.687 5.051.05.376.105.763.125 1.15l-13.568.47c-.195-.468-.309-.968-.339-1.476z" clip-rule="evenodd"/>
        <path fill="#F7B690" d="M520.516 513.686c-1.031 1.274 2.45 2.13 3.681 3.198l-9.868.547c-.584-.031-1.161.151-1.628.516-.468.541-.554 1.33-.215 1.966.345.612.833 1.123 1.42 1.486 3.19 2.235 7.072 3.155 10.883 2.579 1.479-.171 2.887-.746 4.08-1.666 1.195-.951 1.844-2.464 1.723-4.019-.304-2.342-1.992-2.384-3.716-2.838-1.086-.33-6.012-2.218-6.36-1.769z"/>
        <path fill="#783972" d="M543.059 446.778c-3.646-4.417-10.046-13.058-21.527-17.789-6.834 3.611-15.68 2.817-21.687-2.621-11.596 2.58-20.307 12.3-22.614 15.111-3.053 3.72-2.251 9.287-1.733 13.77 1.111 9.616-3.985 77.015-4.214 78.511-.229 1.496 2.107 3.209 3.751 3.967 1.031.385 2.122.571 3.218.547 14.873.624 38.417 1.661 53.295 2.285.997.042 2.043.068 2.869-.35 1.833-.924 1.31-3.142.748-4.845-3.796-11.406 9.513-76.762 7.894-88.586z"/>
        <path fill="#fff" d="M518.528 427.287c-5.135 4.194-12.776 2.12-18.429-.516-1.908.707-3.667 1.783-5.185 3.173-8.866 8.295-6.874 24.201-6.974 34.648-.064 8.296 1.853 27.792 3.332 27.859 3.407-12.8 6.869-25.553 10.774-37.099 3.696-10.922 11.74-18.356 21.772-25.166-1.635-1.199-3.413-2.174-5.29-2.899z"/>
        <path fill="#D2654D" d="M502.749 436.661c1.126-1.342 2.61-2.745 2.361-4.432-.26-1.199-1.207-2.108-2.381-2.286-4.483-.794-2.615 3.746-2.057 5.732-4.598 5.675-10.36 17.763-12.741 32.404.074 8.812 1.768 26.642 3.118 26.693 2.231-8.724 4.483-17.422 6.888-25.738.817-9.699 2.7-29.861 4.812-32.373z"/>
        <path fill="#fff" d="M495.561 434.195l3.367-1.723c.791-.496 1.706-.739 2.63-.697.863.185 1.645.652 2.232 1.331l3.118 3.003c.482.541 1.102.93 1.788 1.124.996.196 1.918-.252 2.725-.696 3.521-1.913 6.915-4.065 10.161-6.444.289-.211.597-.464.597-.779-.047-.278-.195-.527-.413-.696l-3.91-4.071c-3.073 1.032-11.347 3.354-14.694 3.565-2.58.16-3.551-3.395-3.985-3.229-.433.165-.587 1.243-.717 1.583l-1.35 3.612c-.514 1.376-1.031 2.748-1.549 4.117z"/>
        <path fill="#643171" d="M495.128 494.917c7.523-11.642 17.12-21.69 28.277-29.608l.593-.428-6.844-4.912s22.912-9.436 6.475-26.471c10.156 14.998 1.698 21.044-9.065 25.981l7.506 5.397c-18.141 12.763-26.942 30.041-26.942 30.041zm-9.03-.026s-7.422-22.328-7.97-33.735l6.346-1.893-2.894-.243c-1.403-.2-2.555-1.247-2.929-2.662-.383-1.408-.06-2.92.354-4.339 1.927-6.676 10.375-18.361 10.375-18.361-5.436 4.751-9.442 11.018-11.541 18.057-.453 1.548-.807 3.229-.358 4.875.349 1.235 1.142 2.284 2.216 2.93l-2.814.841v.408c.591 11.941 3.738 23.597 9.215 34.122z"/>
        <path fill="#fff" d="M430.042 506.618c-1.051 1.382-2.167 3.095-1.654 4.767.434 1.419 1.953 2.239 3.387 2.265.439 0 4.852-2.348 9.604-5.159l-5.629-7.78c-2.02 1.843-3.926 3.816-5.708 5.907z"/>
        <path fill="#783972" d="M435.75 500.706l5.694 9.559c10.908-6.474 29.083-19.238 31.345-24.407 1.633-3.73-3.731-8.693-6.884-10.375-3.417-1.827-20.282 15.812-30.155 25.223z"/>
        <path fill="#EFB68F" d="M426.526 518.241c-3.421-.551-6.047-3.432-6.381-7.001 0-2.61.673-4.731 7.133-5.257 2.132-.175 4.418-.077 6.196 1.161 5.923 4.127-2.166 11.737-6.948 11.097z"/>
        <path fill="#FFE3CA" d="M531.743 541.215c-.613 5.231 1.334 9.725 4.328 10.158 2.491.309 2.989-3.89 6.55-8.771 3.048-4.22-1.325-9.802-4.328-10.158-3.004-.356-5.938 3.534-6.55 8.771z"/>
        <path fill="#fff" d="M534.557 534.869c.911 1.656 4.851.898 6.56.175.498-.206 1.15-4.055 2.729-8.481l-8.029-1.548c-.274 4.396-1.444 9.513-1.26 9.854z"/>
        <path fill="#783972" d="M552.1 486.193c-1.36-1.156-3.353-.975-5.051-.516-2.859.789-5.444 4.643-7.516 6.908-1.43 1.548-3.457 26.193-4.04 35.598l9.598 2.946c3.876-10.876 8.309-34.515 8.503-39.276.085-2.012.03-4.365-1.494-5.66z"/>
        <path fill="#783972" d="M551.024 461.997c2.864 11.536 4.453 23.825 1.345 35.298-.668 2.477-1.913 5.232-4.334 5.784-1.449.252-2.931-.181-4.039-1.182-1.087-1.001-1.982-2.207-2.635-3.554-5.534-10.319-5.907-22.7-6.122-34.489-.089-4.87-.831-13.279 2.73-17.149 3.711-4.034 8.468 2.822 9.862 5.794 1.378 3.043 2.448 6.226 3.193 9.498z"/>
        <path fill="url(#paint12_linear)" d="M613.419 107h-88.333v28h88.333v-28z"/>
        <path fill="#05C5DA" d="M605.318 125.875c-3.496 0-5.252-2.264-6.802-4.262-1.452-1.872-2.706-3.488-5.221-3.488-2.516 0-3.77 1.616-5.222 3.488-1.55 1.998-3.306 4.262-6.802 4.262-3.496 0-5.252-2.264-6.801-4.262-1.452-1.872-2.706-3.488-5.221-3.488s-3.77 1.616-5.221 3.488c-1.549 1.998-3.306 4.262-6.801 4.262-3.494 0-5.25-2.264-6.799-4.262-1.451-1.872-2.705-3.488-5.219-3.488-2.515 0-3.769 1.616-5.22 3.488-1.549 1.998-3.305 4.262-6.801 4.262-.552 0-1-.448-1-1s.448-1 1-1c2.516 0 3.769-1.616 5.221-3.488 1.549-1.998 3.305-4.262 6.8-4.262 3.495 0 5.25 2.265 6.8 4.262 1.451 1.872 2.704 3.488 5.218 3.488 2.516 0 3.769-1.616 5.221-3.488 1.549-1.998 3.306-4.262 6.801-4.262s5.252 2.264 6.801 4.262c1.452 1.872 2.706 3.488 5.221 3.488 2.516 0 3.77-1.616 5.222-3.488 1.55-1.998 3.306-4.262 6.802-4.262 3.496 0 5.251 2.264 6.801 4.262 1.452 1.872 2.706 3.488 5.222 3.488.553 0 1 .448 1 1s-.448 1-1 1z"/>
        <path fill="#1AA9E8" d="M537.5 165.898c-.262 0-.523-.103-.72-.306-.383-.398-.372-1.031.025-1.414l31.007-29.898c.397-.383 1.03-.373 1.414.025.383.398.372 1.031-.025 1.414l-31.007 29.898c-.194.188-.444.281-.694.281z"/>
        <path fill="#FDE1A7" d="M537.5 168.856c2.186 0 3.958-1.772 3.958-3.958s-1.772-3.958-3.958-3.958-3.958 1.772-3.958 3.958 1.772 3.958 3.958 3.958z"/>
        <path fill="#FFFCFC" d="M299 86h-93v88.408h93V86z"/>
        <path stroke="#BAC6F2" stroke-linecap="round" stroke-linejoin="round" stroke-width="6" d="M251.281 163.58c13.288 0 24.059-10.772 24.059-24.059 0-13.288-10.771-24.06-24.059-24.06s-24.06 10.772-24.06 24.06c0 13.287 10.772 24.059 24.06 24.059z"/>
        <path fill="#BAC6F2" d="M235.77 93.633h-23.66v5.594h23.66v-5.594zM235.77 102.408h-23.66v5.594h23.66v-5.594z"/>
    </g>
    <defs>
        <linearGradient id="paint0_linear" x1="352.051" x2="352.051" y1="682.526" y2="656.82" gradientUnits="userSpaceOnUse">
            <stop stop-color="#F7EBFF"/>
            <stop offset="1" stop-color="#DBEFFF"/>
        </linearGradient>
        <linearGradient id="paint1_linear" x1="492.87" x2="492.87" y1="685.74" y2="660.033" gradientUnits="userSpaceOnUse">
            <stop stop-color="#F7EBFF"/>
            <stop offset="1" stop-color="#DBEFFF"/>
        </linearGradient>
        <linearGradient id="paint2_linear" x1="634.727" x2="594.345" y1="298.541" y2="298.541" gradientUnits="userSpaceOnUse">
            <stop stop-color="#1AA9E8"/>
            <stop offset=".422" stop-color="#3D80EF"/>
            <stop offset=".791" stop-color="#5662F4"/>
            <stop offset="1" stop-color="#5F57F6"/>
        </linearGradient>
        <linearGradient id="paint3_linear" x1="626.628" x2="594.345" y1="311.603" y2="311.603" gradientUnits="userSpaceOnUse">
            <stop stop-color="#FF57BD"/>
            <stop offset="1" stop-color="#FE6A77"/>
        </linearGradient>
        <linearGradient id="paint4_linear" x1="641.797" x2="595.137" y1="285.757" y2="285.757" gradientUnits="userSpaceOnUse">
            <stop stop-color="#C7A0F6"/>
            <stop offset="1" stop-color="#FF57BD"/>
        </linearGradient>
        <linearGradient id="paint5_linear" x1="634.727" x2="595.541" y1="272.341" y2="272.341" gradientUnits="userSpaceOnUse">
            <stop stop-color="#FDE1A7"/>
            <stop offset="1" stop-color="#F9A144"/>
        </linearGradient>
        <linearGradient id="paint6_linear" x1="443.011" x2="477.048" y1="209.906" y2="209.906" gradientUnits="userSpaceOnUse">
            <stop stop-color="#FDE1A7"/>
            <stop offset="1" stop-color="#F9A144"/>
        </linearGradient>
        <linearGradient id="paint7_linear" x1="469.068" x2="553.047" y1="169.886" y2="169.886" gradientUnits="userSpaceOnUse">
            <stop stop-color="#5A55F8"/>
            <stop offset="1" stop-color="#8C6AE2"/>
        </linearGradient>
        <linearGradient id="paint8_linear" x1="457.197" x2="567.242" y1="230.232" y2="230.232" gradientUnits="userSpaceOnUse">
            <stop stop-color="#FF57BD"/>
            <stop offset="1" stop-color="#FE6A77"/>
        </linearGradient>
        <linearGradient id="paint9_linear" x1="480.832" x2="525" y1="229.594" y2="229.594" gradientUnits="userSpaceOnUse">
            <stop stop-color="#C7A0F6"/>
            <stop offset="1" stop-color="#FF57BD"/>
        </linearGradient>
        <linearGradient id="paint10_linear" x1="505.126" x2="531.079" y1="212.25" y2="212.25" gradientUnits="userSpaceOnUse">
            <stop stop-color="#994574"/>
            <stop offset="1" stop-color="#43256F"/>
        </linearGradient>
        <linearGradient id="paint11_linear" x1="486.787" x2="505.758" y1="197.179" y2="215.519" gradientUnits="userSpaceOnUse">
            <stop stop-color="#1AA9E8"/>
            <stop offset=".422" stop-color="#3D80EF"/>
            <stop offset=".791" stop-color="#5662F4"/>
            <stop offset="1" stop-color="#5F57F6"/>
        </linearGradient>
        <linearGradient id="paint12_linear" x1="525.086" x2="613.419" y1="121" y2="121" gradientUnits="userSpaceOnUse">
            <stop stop-color="#FDE1A7"/>
            <stop offset="1" stop-color="#F9A144"/>
        </linearGradient>
        <clipPath id="clip0">
            <path fill="#fff" d="M0 0H818V765H0z"/>
        </clipPath>
        <clipPath id="clip1">
            <path fill="#fff" d="M0 0H106.566V141.058H0z" transform="translate(290.403 184.171)"/>
        </clipPath>
    </defs>
</svg>
