<svg xmlns="http://www.w3.org/2000/svg" viewBox="0 0 46.62 53.33"><defs><style>.cls-1{fill:#2ab782;}.cls-2{fill:#fff0d1;}.cls-3{fill:#002649;}</style></defs><title>资源 2</title><g id="图层_2" data-name="图层 2"><g id="图层_1-2" data-name="图层 1"><path class="cls-1" d="M23,53.26.33,40.35A.65.65,0,0,1,0,39.78V13.68a.51.51,0,0,1,.27-.45L23,.07a.55.55,0,0,1,.53,0L46.35,13.3a.51.51,0,0,1,.27.45V39.62a1,1,0,0,1-.51.88L23.53,53.26A.49.49,0,0,1,23,53.26Z"/><polygon class="cls-2" points="7.66 26.77 3.82 20.11 23.27 8.88 31.24 13.43 7.66 26.77"/><polygon class="cls-3" points="11.5 33.42 7.66 26.77 31.24 13.43 31.24 22.12 11.5 33.42"/><polygon class="cls-2" points="15.35 40.08 11.5 33.42 31.24 22.12 38.6 26.81 15.35 40.08"/><polygon class="cls-3" points="19.19 46.74 15.35 40.08 38.6 26.81 38.6 35.46 19.19 46.74"/><path class="cls-3" d="M3.82,20.11.17,13.67a.33.33,0,0,1,.12-.45L23,.05a.15.15,0,0,1,.23.13v8.7Z"/><path class="cls-2" d="M23.09,53.13,19.2,46.75s0,0,0,0L38.59,35.46h0L46.27,40a.24.24,0,0,1,0,.41L23.56,53.25A.35.35,0,0,1,23.09,53.13Z"/></g></g></svg>